<svg xmlns="http://www.w3.org/2000/svg" viewBox="0 0 414.81 110.16" style=""><defs><style>.cls-1,.cls-2,.cls-3{fill:none;}.cls-1{stroke:#a7a9ac;}.cls-1,.cls-2,.cls-3,.cls-4{stroke-miterlimit:10;}.cls-2{stroke:#6d6e71;}.cls-3,.cls-4{stroke:#000;}</style></defs><title>Asset 2</title><g id="Layer_2" data-name="Layer 2"><g id="Layer_1-2" data-name="Layer 1"><path class="cls-1 OycHmPcv_0" d="M306.73,103.57L306.75,54.53L315.74,54.53L315.74,92.51"></path><path class="cls-1 OycHmPcv_1" d="M372.75,104.57L372.75,103.47L374.92,103.47L374.92,98.68L377.69,98.68L377.81,103.47L379.96,103.47L379.96,97.59L382.73,97.59L382.73,103.72L385.65,103.77L385.65,105.56L382.84,105.53L382.84,107.56L377.82,107.52L377.74,105.63L374.76,105.58L374.76,104.6L372.75,104.57"></path><path class="cls-1 OycHmPcv_2" d="M57.01,105.49L60.76,105.49L60.76,95.4L63.73,95.46L66.02,93.48L66.02,71.69L58.02,71.69L58.02,82.53L53.72,82.53L53.85,105.49L53.85,105.49"></path><path class="cls-1 OycHmPcv_3" d="M99.12,93.44L95.56,93.42L95.56,88.28L94.75,87.78L94.75,75.53L93.56,75.61L93.56,72.47L91.13,72.47L91.13,60.22L98.91,60.22L99.12,93.44"></path><path class="cls-1 OycHmPcv_4" d="M120.58,83.59L120.58,58.61L108.85,58.61L108.85,69.58L115.8,69.58L115.8,93.47L119.7,93.47L119.7,83.59"></path><path class="cls-1 OycHmPcv_5" d="M131.59,95.52L131.59,93.66L126.66,93.58L126.66,86.56L122.67,86.56L122.67,83.59L122.67,81.2L122.67,75.51L134.75,75.51L134.75,95.58"></path><path class="cls-1 OycHmPcv_6" d="M151.86,104.61L143.61,104.56L143.61,96.57L142.06,96.59L141.95,76.53L147.78,76.53L147.78,87.5L151.83,87.44L151.86,104.61"></path><path class="cls-1 OycHmPcv_7" d="M174.79,85.54L170.73,85.49L170.73,79.36L167.57,76.33L167.57,67.6L174.79,67.6L174.79,85.54"></path><path class="cls-1 OycHmPcv_8" d="M178.69,92.54L178.69,80.68L183.72,80.68L183.72,63.59L190.74,63.59L190.74,77.62L192.91,77.68L192.91,76.53L194.81,76.53L194.81,93.6L187.75,93.79L187.75,98.56L186.76,98.56L178.9,98.49"></path><path class="cls-1 OycHmPcv_9" d="M243.74,43.63L243.74,40.63L248.84,40.63L248.84,32.78L249.79,32.78L249.79,38.71L253.16,41.88L250.9,45.39L250.9,48.61L248.73,48.68L248.73,96.56L246.86,96.64L246.86,103.6L244.84,103.67"></path><path class="cls-1 OycHmPcv_10" d="M271.78,50.64L266.95,50.64L267.01,104.62L271.78,104.64"></path><path class="cls-1 OycHmPcv_11" d="M289.73,100.45L289.73,65.63L292.65,65.63L292.44,106.51"></path><path class="cls-1 OycHmPcv_12" d="M332.89,81.54L332.7,58.55L333.79,58.55L333.79,48.6L335.06,48.6L335.06,38.65L336.72,38.65L336.72,22.83L337.74,22.83L337.74,38.71L340.93,38.65L340.93,19.77L341.82,19.77L342.08,38.71L343.67,38.71L343.67,48.66L344.69,48.66L344.69,81.66"></path><path class="cls-2 OycHmPcv_13" d="M7.71,98.45L7.71,77.72L11.01,77.72L11.01,73.57L9.81,73.57L9.8,72.59L19.76,72.59L19.76,73.56L18.79,73.6L18.8,77.57L21.78,77.58L21.78,98.45"></path><path class="cls-2 OycHmPcv_14" d="M48.85,58.05L53.85,58.05L53.85,105.49L48.85,105.49"></path><path class="cls-2 OycHmPcv_15" d="M94.75,87.16L94.75,75.53L93.56,75.61L93.56,72.47L88.47,72.47L88.47,68.66L85.08,68.66L85.08,72.73L80.07,72.73L80.07,93.51L83.79,93.48L83.79,88.52L88.87,85.49L88.87,83.88L90.73,83.88L90.73,85.3L94.75,87.78L94.75,87.16Z"></path><path class="cls-2 OycHmPcv_16" width="11.71" height="23.89" d="M104.08 69.58 L115.78999999999999 69.58 L115.78999999999999 93.47 L104.08 93.47 Z"></path><path class="cls-2 OycHmPcv_17" d="M119.7,93.58L119.7,83.59L122.67,83.59L122.67,86.56L126.66,86.56L126.66,93.58"></path><path class="cls-2 OycHmPcv_18" d="M134.75,104.85L134.81,88.57L139.77,88.57L139.86,96.61"></path><path class="cls-2 OycHmPcv_19" d="M151.86,104.61L151.79,60.66L158.74,60.66L158.74,85.67L157.79,85.67L157.79,100.47L154.75,100.47L154.75,104.62L151.86,104.61"></path><path class="cls-2 OycHmPcv_20" d="M216.67,91.56L216.67,60.85L212.96,60.78L212.75,42.71L222.9,42.71L222.59,91.59L216.67,91.56"></path><path class="cls-2 OycHmPcv_21" d="M232.02,88.59L230.73,88.59L231.13,43.63L244.74,43.63L244.84,103.67L243.8,104.57L243.8,109.66L241.7,109.66L241.7,104.19L239.64,104.25L239.64,88.34L237.6,88.4L237.6,84.62L235.68,82.39L235.68,80.6L234.07,80.66L234.07,82.46L232.02,84.69"></path><path class="cls-2 OycHmPcv_22" d="M299.76,80.7L299.62,71.47L292.65,71.47L292.44,106.51L295.05,106.51L295.05,83.62L297.29,80.7L299.76,80.7Z"></path><path class="cls-2 OycHmPcv_23" d="M317.3,106.61L317.3,92.51L311,92.51L311,98.61L306.73,98.61L306.73,103.57L314.78,103.57L314.78,109.59L316.82,109.59L316.82,106.61L317.3,106.61Z"></path><path class="cls-2 OycHmPcv_24" d="M319.79,105.23L319.79,106.58L319.3,106.58L319.3,74.88L319.94,74.88L319.94,72.58L321.6,72.58L321.6,74.86L324.28,74.9L324.28,72.58L325.79,72.58L325.79,74.84L328.33,74.86L328.33,72.58L329.82,72.58L329.82,74.84L330.74,74.84L330.74,81.55L329.83,105.2L319.79,105.23Z"></path><path class="cls-2 OycHmPcv_25" d="M341.75,81.53L341.75,77.52L345.9,77.52L345.9,67.69L353.8,67.69L353.8,77.73L353.87,106.53"></path><path class="cls-2 OycHmPcv_26" d="M145.81,104.57L145.81,97.59L149.75,97.59L149.75,104.59"></path><path class="cls-2 OycHmPcv_27" d="M175.68,109.58L175.68,92.54L180.45,92.54L180.45,98.5L178.9,98.49L178.9,104.56L177.85,104.56L177.85,109.58L175.68,109.58"></path><path class="cls-1 OycHmPcv_28" d="M222.59,91.59L222.69,75.58L226.96,75.58L226.96,89.61L230.86,89.63L231.04,105.49L226.7,105.43L226.7,91.62L222.59,91.59"></path><path class="cls-3 OycHmPcv_29" d="M356.8,107.03L356.8,67.59L365.78,67.59L365.78,71.57L372.75,71.58L372.75,104.57L374.76,104.6L374.76,105.58L377.74,105.63L377.82,107.52L382.84,107.56L382.84,105.53L387.78,105.58L387.78,68.59L391.79,68.57L391.79,66.56L398.76,66.63L398.76,68.54L401.77,68.53L401.77,107.55L404.74,107.59L404.74,108.58L405.86,108.62L405.86,105.6L409.76,105.61L409.76,106.56L411.8,106.58L411.8,108.61L413.72,108.59L413.72,109.51L414.79,109.56"></path><path class="cls-3 OycHmPcv_30" d="M271.78,105.08L271.78,15.58L286.22,15.58L288.76,18.31L289.73,18.31L289.73,100.45L291.75,100.6L291.75,106.44L295.05,106.51L295.05,83.62L297.29,80.7L299.76,80.7L300.78,81.55L300.78,83.56L303.79,83.59L303.79,103.57L314.78,103.57L314.78,109.59L316.82,109.59L316.82,106.61L319.79,106.58L319.79,105.23L329.83,105.2L329.83,81.55L353.87,81.5L353.87,106.53L356.8,106.53"></path><path class="cls-3 OycHmPcv_31" d="M187.75,99.05L187.75,93.79L194.81,93.6L194.81,60.6L198.9,60.6L198.9,32.67L201.94,32.55L201.94,16.57L206.79,16.57L206.79,15.58L209.67,15.58L209.67,32.49L209.67,33.48L212.65,33.42L212.96,60.78L216.67,60.85L216.67,91.56L226.7,91.62L226.7,105.43L231.04,105.49L230.73,88.59L232.02,88.59L232.02,84.69L234.07,82.46L234.07,80.66L235.68,80.6L235.68,82.39L237.6,84.62L237.6,88.4L239.64,88.34L239.64,104.25L241.7,104.19L241.7,109.66L243.8,109.66L243.8,104.57L244.84,103.67L246.86,103.6L246.86,96.64L248.73,96.56L248.73,48.68L250.9,48.61L250.9,45.39L254.94,39.1L254.94,30.65L256.66,30.73L256.66,39.26L260.63,45.76L260.63,48.38L262.8,48.46L262.63,104.64L271.78,104.64"></path><path class="cls-3 OycHmPcv_32" d="M136.8,104.93L136.8,104.93L136.8,96.64L143.61,96.57L143.61,104.56L154.75,104.62L154.75,100.47L157.79,100.47L157.79,85.67L162.93,85.67L162.93,79.61L165.9,76.51L165.9,74.72L167.57,74.78L167.57,76.33L170.73,79.36L170.73,85.49L175.68,85.55L175.68,109.58L177.85,109.58L177.85,104.56L178.9,104.56L178.9,98.49L187.75,98.56"></path><path class="cls-3 OycHmPcv_33" d="M57.45,105.49L60.76,105.49L60.76,95.4L63.73,95.46L66.02,93.48L66.02,70.88L67.2,70.88L67.2,66.42L68.44,66.48L68.44,61.47L69.43,61.47L69.43,59.55L70.54,59.55L70.54,57.5L72.58,57.5L72.58,59.61L73.7,59.61L73.7,61.47L74.88,61.4L74.88,65.68L75.74,65.68L75.74,70.5L76.67,70.5L76.67,93.54L83.79,93.48L83.79,88.52L88.87,85.49L88.87,83.88L90.73,83.88L90.73,85.3L95.56,88.28L95.56,93.42L131.59,93.66L131.59,95.52L134.75,95.58L134.75,104.85L137.31,105.01"></path><path class="cls-3 OycHmPcv_34" d="M0,109.4L1.79,109.4L1.79,98.45L26.49,98.45L26.49,104.42L28.68,104.42L28.68,75.35L30.47,75.35L30.47,63.08L32.26,63.08L32.26,56.43L36.84,56.43L36.84,37.11L36.84,35.32L38.55,35.32L39.19,34.48L40.56,34.04L41.1,33.44L42.88,33.44L43.78,32.87L44.76,32.37L46.47,32.06L47.54,32.06L47.67,37.5L48.85,37.47L48.85,105.49L51.35,105.49L57.45,105.49"></path><path class="cls-4 OycHmPcv_35" d="M203.5,16.57L203.5,0"></path><path class="cls-4 OycHmPcv_36" d="M208.65,15.74L208.65,0.68"></path></g></g><style>.OycHmPcv_0{stroke-dasharray:97 99;stroke-dashoffset:98;animation:OycHmPcv_draw 2000ms linear 0ms forwards;}.OycHmPcv_1{stroke-dasharray:55 57;stroke-dashoffset:56;animation:OycHmPcv_draw 2000ms linear 27ms forwards;}.OycHmPcv_2{stroke-dasharray:88 90;stroke-dashoffset:89;animation:OycHmPcv_draw 2000ms linear 55ms forwards;}.OycHmPcv_3{stroke-dasharray:82 84;stroke-dashoffset:83;animation:OycHmPcv_draw 2000ms linear 83ms forwards;}.OycHmPcv_4{stroke-dasharray:93 95;stroke-dashoffset:94;animation:OycHmPcv_draw 2000ms linear 111ms forwards;}.OycHmPcv_5{stroke-dasharray:62 64;stroke-dashoffset:63;animation:OycHmPcv_draw 2000ms linear 138ms forwards;}.OycHmPcv_6{stroke-dasharray:76 78;stroke-dashoffset:77;animation:OycHmPcv_draw 2000ms linear 166ms forwards;}.OycHmPcv_7{stroke-dasharray:49 51;stroke-dashoffset:50;animation:OycHmPcv_draw 2000ms linear 194ms forwards;}.OycHmPcv_8{stroke-dasharray:99 101;stroke-dashoffset:100;animation:OycHmPcv_draw 2000ms linear 222ms forwards;}.OycHmPcv_9{stroke-dasharray:96 98;stroke-dashoffset:97;animation:OycHmPcv_draw 2000ms linear 250ms forwards;}.OycHmPcv_10{stroke-dasharray:64 66;stroke-dashoffset:65;animation:OycHmPcv_draw 2000ms linear 277ms forwards;}.OycHmPcv_11{stroke-dasharray:79 81;stroke-dashoffset:80;animation:OycHmPcv_draw 2000ms linear 305ms forwards;}.OycHmPcv_12{stroke-dasharray:168 170;stroke-dashoffset:169;animation:OycHmPcv_draw 2000ms linear 333ms forwards;}.OycHmPcv_13{stroke-dasharray:71 73;stroke-dashoffset:72;animation:OycHmPcv_draw 2000ms linear 361ms forwards;}.OycHmPcv_14{stroke-dasharray:58 60;stroke-dashoffset:59;animation:OycHmPcv_draw 2000ms linear 388ms forwards;}.OycHmPcv_15{stroke-dasharray:83 85;stroke-dashoffset:84;animation:OycHmPcv_draw 2000ms linear 416ms forwards;}.OycHmPcv_16{stroke-dasharray:72 74;stroke-dashoffset:73;animation:OycHmPcv_draw 2000ms linear 444ms forwards;}.OycHmPcv_17{stroke-dasharray:27 29;stroke-dashoffset:28;animation:OycHmPcv_draw 2000ms linear 472ms forwards;}.OycHmPcv_18{stroke-dasharray:30 32;stroke-dashoffset:31;animation:OycHmPcv_draw 2000ms linear 500ms forwards;}.OycHmPcv_19{stroke-dasharray:102 104;stroke-dashoffset:103;animation:OycHmPcv_draw 2000ms linear 527ms forwards;}.OycHmPcv_20{stroke-dasharray:118 120;stroke-dashoffset:119;animation:OycHmPcv_draw 2000ms linear 555ms forwards;}.OycHmPcv_21{stroke-dasharray:169 171;stroke-dashoffset:170;animation:OycHmPcv_draw 2000ms linear 583ms forwards;}.OycHmPcv_22{stroke-dasharray:83 85;stroke-dashoffset:84;animation:OycHmPcv_draw 2000ms linear 611ms forwards;}.OycHmPcv_23{stroke-dasharray:56 58;stroke-dashoffset:57;animation:OycHmPcv_draw 2000ms linear 638ms forwards;}.OycHmPcv_24{stroke-dasharray:100 102;stroke-dashoffset:101;animation:OycHmPcv_draw 2000ms linear 666ms forwards;}.OycHmPcv_25{stroke-dasharray:65 67;stroke-dashoffset:66;animation:OycHmPcv_draw 2000ms linear 694ms forwards;}.OycHmPcv_26{stroke-dasharray:18 20;stroke-dashoffset:19;animation:OycHmPcv_draw 2000ms linear 722ms forwards;}.OycHmPcv_27{stroke-dasharray:44 46;stroke-dashoffset:45;animation:OycHmPcv_draw 2000ms linear 750ms forwards;}.OycHmPcv_28{stroke-dasharray:77 79;stroke-dashoffset:78;animation:OycHmPcv_draw 2000ms linear 777ms forwards;}.OycHmPcv_29{stroke-dasharray:228 230;stroke-dashoffset:229;animation:OycHmPcv_draw 2000ms linear 805ms forwards;}.OycHmPcv_30{stroke-dasharray:370 372;stroke-dashoffset:371;animation:OycHmPcv_draw 2000ms linear 833ms forwards;}.OycHmPcv_31{stroke-dasharray:456 458;stroke-dashoffset:457;animation:OycHmPcv_draw 2000ms linear 861ms forwards;}.OycHmPcv_32{stroke-dasharray:140 142;stroke-dashoffset:141;animation:OycHmPcv_draw 2000ms linear 888ms forwards;}.OycHmPcv_33{stroke-dasharray:189 191;stroke-dashoffset:190;animation:OycHmPcv_draw 2000ms linear 916ms forwards;}.OycHmPcv_34{stroke-dasharray:218 220;stroke-dashoffset:219;animation:OycHmPcv_draw 2000ms linear 944ms forwards;}.OycHmPcv_35{stroke-dasharray:17 19;stroke-dashoffset:18;animation:OycHmPcv_draw 2000ms linear 972ms forwards;}.OycHmPcv_36{stroke-dasharray:16 18;stroke-dashoffset:17;animation:OycHmPcv_draw 2000ms linear 1000ms forwards;}@keyframes OycHmPcv_draw{100%{stroke-dashoffset:0;}}@keyframes OycHmPcv_fade{0%{stroke-opacity:1;}94.44444444444444%{stroke-opacity:1;}100%{stroke-opacity:0;}}</style></svg>